<svg width="67" height="56" viewBox="0 0 67 56" fill="none" xmlns="http://www.w3.org/2000/svg">
<path fill-rule="evenodd" clip-rule="evenodd" d="M10.4323 13.1487C16.8276 9.73026 23.4506 6.45899 28.8549 1.48238C29.9044 0.74771 31.1558 1.42288 32.0305 2.12993C30.9015 3.25825 29.7843 4.46649 28.3583 5.20543C23.0795 7.41233 17.9683 10.1865 13.6332 14.0073C11.8402 14.4006 9.82735 14.7241 8.61452 16.285C8.89187 15.0847 9.31042 13.7726 10.4323 13.1487ZM24.9684 7.64278C26.1049 6.87753 27.5434 6.88932 28.8564 6.71598C32.4586 6.36127 36.4205 7.13368 38.9395 9.82894C36.9418 10.3972 35.2123 11.5816 33.6855 12.9399C32.7558 11.5842 31.685 10.3358 30.499 9.1918C29.9807 9.53208 29.4737 9.89247 28.956 10.2358C26.484 9.62559 23.4828 9.35166 21.3631 11.0577C19.4353 12.7616 19.572 15.5656 19.9627 17.847C17.7252 20.0766 15.6359 22.4602 13.8155 25.0315C12.1103 24.9709 10.1544 25.1597 8.95803 26.513C7.75224 27.8685 7.79127 29.7899 7.99045 31.457C7.8435 31.5818 7.54718 31.8351 7.39708 31.9606C5.95382 28.6536 5.47572 24.7442 6.9585 21.3424C7.97217 18.9249 9.94346 17.0358 12.1387 15.6141C11.655 16.7218 11.3248 17.8914 11.224 19.0923C11.1484 20.4595 10.4498 21.8861 11.1095 23.2067C11.5217 24.1303 12.612 24.3717 13.4813 24.6901C13.1684 24.1102 12.6477 23.5783 12.733 22.8708C12.7021 21.9468 13.3454 21.1137 13.151 20.1853C12.8394 17.7299 13.411 14.8337 15.6108 13.3168C18.7229 11.4141 21.8608 9.55092 24.9684 7.64278Z" fill="white"/>
<path fill-rule="evenodd" clip-rule="evenodd" d="M20.232 17.7078C20.9393 13.8157 24.9043 11.1569 28.863 10.6387C25.8837 12.8816 22.9429 15.1752 20.232 17.7078ZM23.0415 15.9793C25.0918 13.9348 27.3647 12.1397 29.6666 10.3982C31.5724 14.3775 33.757 18.3058 34.7155 22.6576C35.5564 26.8861 35.2592 31.5479 33.0105 35.2929C31.866 37.2854 30.4509 39.1499 29.6945 41.3503C28.9896 43.2881 28.4764 45.4123 27.0087 46.9346C25.4879 48.5125 23.2057 49.0093 21.0903 49.013C20.2713 49.055 19.5299 48.3603 19.469 47.5387C19.2838 46.2075 19.6668 44.8922 19.923 43.5995C22.6675 42.5882 25.0633 40.4672 26.0332 37.6325C24.4438 39.6141 22.8293 42.0594 20.1368 42.4805C20.377 40.232 20.7297 37.9844 21.4432 35.8407C24.3823 35.0719 27.0779 33.1057 28.2866 30.2326C26.5544 32.1535 24.6704 34.504 21.8922 34.654C22.2915 33.2948 22.7483 31.9558 23.1827 30.6053C24.9433 30.2089 26.6559 29.2184 27.5026 27.5521C26.324 28.5529 25.1894 29.8879 23.5076 29.8818C23.8805 28.151 24.5372 26.5051 25.0625 24.8193C26.2241 24.4308 27.2444 23.6737 27.8636 22.5948C27.0649 23.3107 26.281 24.0767 25.2433 24.4299C26.4648 20.1966 27.9318 16.0403 29.2458 11.8358C26.7655 16.0221 24.6545 20.4207 22.5251 24.7967C21.7002 23.9408 21.5773 22.7223 21.1758 21.655C21.2707 22.9101 21.5528 24.1888 22.3607 25.1857C21.7435 26.545 21.1589 27.9168 20.5339 29.2712C19.2093 28.2098 19.0121 26.4402 18.6231 24.8986C18.462 26.7176 19.1173 28.5119 20.2935 29.8884C19.6217 31.4976 18.998 33.1292 18.3891 34.7674C16.0018 33.2359 15.5994 30.0628 15.242 27.471C14.6506 30.5292 15.935 33.6759 17.993 35.9118C17.3882 37.6393 16.9544 39.421 16.4039 41.1694C14.314 39.4389 13.9218 36.5676 13.4532 34.0516C13.0023 37.0607 14.2023 40.1132 16.2194 42.3151C15.8631 44.2326 15.6648 46.1906 15.8702 48.1388C13.6933 47.3611 11.5505 46.1877 10.1426 44.2797C9.40067 43.311 9.04847 42.1287 8.67853 40.984C6.86213 38.7791 7.34878 35.2671 9.2337 33.2641C8.83294 34.9745 8.45539 36.6997 8.36383 38.4625C11.8685 30.162 16.623 22.2983 23.0415 15.9793ZM38.8196 9.31134C40.3362 9.24345 41.9559 9.12457 43.3066 9.87711C44.5403 10.4799 45.2518 11.6656 45.7906 12.8335C44.8713 11.7739 43.9307 10.6682 42.6002 10.0504C41.4567 9.43365 40.1065 9.39851 38.8196 9.31134Z" fill="white"/>
<path fill-rule="evenodd" clip-rule="evenodd" d="M33.442 13.4139C35.4484 12.1983 37.8499 11.1202 40.2406 11.6587C42.1099 12.0624 43.3367 13.6485 44.1153 15.2387C44.8158 16.5354 44.9628 18.2415 44.0465 19.5004C42.8799 21.1154 40.8394 21.7821 38.9659 22.2511C39.3727 24.0729 39.9404 26.0863 39.1101 27.8955C38.7873 28.6362 37.9845 28.9309 37.2528 29.133C37.3017 30.3845 36.8402 31.608 35.9735 32.5472C37.6241 26.1372 37.197 19.0003 33.442 13.4139ZM46.5042 12.6688C49.5623 13.1884 51.9765 15.5275 53.2114 18.3045C51.2434 17.4815 49.0379 17.6075 47.0512 18.294C47.1065 16.3929 46.3024 14.59 46.5042 12.6688ZM10.5021 28.9633C10.9646 27.7908 12.0018 27.0732 13.0373 26.5531C11.9875 28.4014 11.0571 30.3279 10.2645 32.3248C10.1232 31.2004 10.0253 30.0004 10.5021 28.9633Z" fill="white"/>
<path fill-rule="evenodd" clip-rule="evenodd" d="M40.688 24.6357C43.2177 23.5262 45.7884 21.7133 46.5065 18.8257C49.3682 18.9129 52.156 20.4992 53.6227 23.0575C54.8807 25.28 55.8014 27.9037 55.3666 30.4833C55.078 32.9853 54.2223 35.5038 52.4355 37.2873C51.753 36.8183 51.0404 36.4035 50.2952 36.0466C49.7114 33.6887 48.6038 30.9802 46.14 30.1578C43.4601 29.3516 40.713 30.7134 38.601 32.2958C40.6977 31.2155 43.344 30.3553 45.5943 31.5604C47.7326 32.778 48.5221 35.4017 48.7893 37.7249C49.997 38.1804 51.5969 38.7003 51.8618 40.1887C52.0058 41.651 50.679 42.5131 49.9828 43.5766C48.9795 46.2235 47.7291 49.0082 45.3019 50.5758C43.6586 51.6727 41.5246 51.7106 39.7273 50.9465C38.501 51.7181 37.033 52.5084 35.5492 52.0223C34.0887 51.5376 33.32 50.0274 32.8403 48.6459C31.4649 48.8994 30.1216 48.354 29.1324 47.3663C30.1621 43.6826 32.2457 40.4562 34.043 37.141C34.6984 36.0431 35.0264 34.7918 35.3836 33.5674C36.4575 32.8749 37.2536 31.8321 37.6258 30.5874C40.0245 29.7776 41.0071 27.0412 40.688 24.6357Z" fill="white"/>
<path fill-rule="evenodd" clip-rule="evenodd" d="M54.2898 37.6451C55.4209 36.2554 56.0926 34.5604 56.6994 32.8932C57.0657 33.3423 57.4635 33.8581 58.0972 33.9079C59.7318 34.1092 61.2392 33.2404 62.6573 32.5465C63.2461 35.2655 61.9837 38.0518 60.0575 39.9561C57.5772 40.8502 55.0194 41.6336 52.7639 43.0385C53.2482 42.483 53.7941 41.9133 53.9255 41.1628C54.1508 40.1173 53.6124 39.0907 52.8855 38.3711C53.4296 38.313 53.9613 38.1035 54.2898 37.6451ZM29.8119 49.9087C29.3567 49.1443 29.5601 48.2021 29.5233 47.3777C30.0766 48.4314 30.8605 49.2153 31.739 49.7684C31.1439 49.9131 30.4151 50.6243 29.8119 49.9087ZM52.6945 45.7557C54.0058 44.7466 55.2695 43.5597 56.8864 43.113C55.2538 49.5634 49.1257 53.5517 43.0829 54.4503C46.1616 51.4073 49.3809 48.5137 52.6945 45.7557Z" fill="white"/>
</svg>
