<svg width="84" height="51" viewBox="0 0 84 51" fill="none" xmlns="http://www.w3.org/2000/svg">
<path fill-rule="evenodd" clip-rule="evenodd" d="M2.92497 34.6957C3.23805 34.5865 3.64541 34.4461 4.11157 34.291C4.24303 34.2667 4.37535 34.2242 4.50941 34.1601C6.54616 33.4945 9.45297 32.6348 11.0755 32.562C14.1994 32.4207 17.6372 29.195 19.2891 27.6454L19.3712 27.5682C20.6331 26.3887 30.5695 22.0398 32.5933 21.4461C33.6571 21.135 34.6915 19.9086 36.2915 17.9326C37.7444 16.1378 39.5563 13.9052 40.8208 13.7241C41.7643 13.588 43.2701 13.1504 45.0145 12.6416C47.4465 11.9327 53.1425 10.2748 53.9442 11.0392C55.8045 12.9311 59.5823 11.1969 60.8234 10.4854C61.2739 11.0912 61.6199 11.5652 61.7358 11.8356C62.2339 12.9874 49.504 13.9442 47.693 14.0448C45.8819 14.1444 40.7464 13.9139 39.0781 16.624C37.4097 19.3332 31.3418 24.7082 29.1823 24.5791C27.0218 24.4491 26.6845 24.2394 25.5974 26.8775C24.5103 29.5165 17.9684 31.0652 17.0975 32.0186C16.2249 32.9728 10.7762 35.285 9.42962 34.4461C8.08303 33.6063 3.1213 36.0347 3.1213 36.0347C3.06508 35.6776 2.99762 35.2166 2.92497 34.6957ZM2.37405 30.5721C35.3392 5.71176 52.7775 4.55043 57.4045 4.7931C57.4884 5.05916 57.5965 5.32956 57.715 5.5991C55.6272 6.02983 50.381 7.06376 45.7488 7.58636C41.9382 8.01623 38.253 10.5157 35.0028 12.7196C33.0404 14.0517 31.1853 15.311 29.8318 15.6836C26.0575 16.728 17.8906 21.9947 14.7598 24.7498C12.397 26.8298 5.02487 30.2029 2.47438 31.3382C2.43978 31.0782 2.40692 30.8217 2.37405 30.5721ZM8.62789 36.1257C11.3981 37.5453 17.3423 34.1428 17.4019 34.1064C17.8266 33.8446 18.1423 33.6054 18.3844 33.361C18.7053 33.1634 19.4889 32.841 20.2474 32.529C21.5455 31.9952 23.1594 31.3313 24.5034 30.5036C25.952 29.6118 26.8722 28.6576 27.3124 27.5873C27.6091 26.8688 27.7864 26.53 27.885 26.3714C28.0813 26.3714 28.3961 26.3922 28.6616 26.4095L29.0716 26.4355C30.0393 26.4936 31.1654 26.1053 32.6158 25.2126C35.4932 23.4412 39.2519 19.8835 40.6573 17.6007C40.8087 17.3546 41.037 17.1396 41.3552 16.9438C42.8177 16.0433 45.4011 15.9731 46.9457 15.9315C47.2727 15.922 47.5598 15.915 47.7959 15.9012C47.9187 15.8951 60.1799 15.1784 62.5107 13.7432C63.6368 13.0498 63.7803 11.885 63.4387 11.0946C63.232 10.618 62.8575 10.1049 62.1561 9.16456C61.1312 7.79003 58.7338 4.57123 59.0218 3.10136C59.2017 2.1879 58.8238 1.2779 58.0342 0.729298C54.4017 -1.79964 35.4076 2.8249 16.6123 14.3958C11.0469 17.8226 5.7133 21.7096 0.761081 25.9502L0 26.6002L0.124541 27.5942C0.157405 27.856 0.928865 34.0405 1.28778 36.3242L1.6787 38.8115L3.936 37.7065C5.73665 36.8242 7.91265 36.0962 8.62789 36.1257Z" fill="white"/>
<path fill-rule="evenodd" clip-rule="evenodd" d="M75.3939 29.1408C75.0022 30.6739 69.4767 32.7759 68.1884 32.6949C66.9002 32.6113 61.1144 36.017 58.5068 34.8754C55.9 33.733 55.8023 34.1158 54.3351 35.7014C52.8662 37.2853 44.7763 37.619 41.7009 36.8266C38.6265 36.0342 35.0825 39.7461 33.7078 40.9239C32.3323 42.1025 22.4915 50.2065 22.0549 49.0364C21.9529 48.7623 21.8742 48.1828 21.7808 47.4379C23.1668 47.0921 27.0903 45.7273 27.124 43.0846C27.1724 41.9818 32.4265 39.2391 34.6701 38.0682C36.2782 37.2276 37.6659 36.5024 38.4414 35.948C38.4959 35.9084 38.5573 35.8747 38.6221 35.842C38.9896 35.7394 39.3588 35.6437 39.7288 35.5531C41.0706 35.404 42.984 35.6376 44.6154 35.8411C47.134 36.1541 48.7274 36.3188 49.7105 35.8083C51.5788 34.8384 61.7481 31.0955 63.473 31.0713L63.5862 31.0705C65.8489 31.0394 70.5557 30.9799 72.9047 28.9244C74.506 27.5259 78.6361 25.5678 80.2563 24.828C80.565 25.2531 80.833 25.629 81.0396 25.9248C81.0396 25.9248 75.7856 27.6087 75.3939 29.1408ZM77.8044 21.4896C77.8683 21.574 77.9341 21.6646 77.998 21.7508C77.8779 21.7784 77.756 21.8206 77.6323 21.8801C76.3856 22.4802 75.1362 23.0665 73.8757 23.6158C70.6793 24.6591 66.8518 25.7748 64.8511 25.8636C60.6899 26.0498 51.1604 27.9096 47.7193 29.7677C46.4856 30.4333 44.2783 30.811 41.9421 31.211C38.0748 31.8723 33.6923 32.6233 30.6463 34.9479C26.9459 37.7707 22.4483 40.6531 20.6465 41.7852C20.5436 41.5093 20.4355 41.2412 20.3128 40.992C23.4815 37.6224 36.8584 26.4145 77.8044 21.4896ZM82.5631 24.8668C81.242 22.9786 77.526 18.0105 77.3695 17.7993L76.7712 17L75.7735 17.0586C69.2735 17.4363 62.7424 18.3295 56.3609 19.7143C34.8128 24.3909 17.9213 34.1882 17.0498 38.5097C16.8613 39.4486 17.2158 40.3626 17.9766 40.8937C19.2009 41.7499 19.6954 45.7169 19.9073 47.4103C20.0525 48.57 20.1355 49.1959 20.3162 49.6805C20.6154 50.4824 21.5249 51.2196 22.8149 50.9394C25.4882 50.3591 34.8231 42.4069 34.9165 42.3276C35.0946 42.1741 35.3082 41.9809 35.5511 41.7611C36.6924 40.7256 38.604 38.9925 40.2804 38.6287C40.6453 38.5493 40.9582 38.5459 41.2375 38.6174C43.8287 39.2839 48.9963 39.2417 52.2956 38.5252C53.9582 38.1648 55.0389 37.6664 55.696 36.9551L55.9744 36.655C56.1525 36.4585 56.3661 36.2257 56.5079 36.0912C56.6885 36.1369 57.0508 36.2584 57.7615 36.5688C58.818 37.0327 60.1408 37.0818 61.8017 36.7214C63.3415 36.3869 64.9652 35.7489 66.2699 35.2367C67.0325 34.9366 67.8201 34.6263 68.1884 34.5461C68.5308 34.5547 68.9233 34.5073 69.4109 34.4012C69.4793 34.3866 76.1167 32.7242 77.1326 29.7927C77.6289 29.2779 79.6995 28.2976 81.6094 27.6871L84 26.9215L82.5631 24.8668Z" fill="white"/>
</svg>
