<svg width="69" height="56" viewBox="0 0 69 56" fill="none" xmlns="http://www.w3.org/2000/svg">
<path fill-rule="evenodd" clip-rule="evenodd" d="M37.9443 37.0666C35.4332 39.0815 33.336 41.2315 31.7917 42.9827C32.6539 40.2518 33.5113 37.2806 34.0984 35.1969C33.7433 34.9007 33.4091 34.5798 33.1035 34.2292C32.163 34.6121 31.1788 34.853 30.1813 34.953C29.2778 36.2108 28.2963 37.6813 27.4356 39.0068C27.6099 37.5759 27.7264 36.1112 27.8022 34.9219C27.03 34.8237 26.2634 34.6408 25.5163 34.3689C24.202 33.8905 23.0282 33.1743 22.0331 32.2761C22.5635 38.002 21.3887 43.9965 20.5394 47.3752C20.3844 47.9926 20.1349 48.5586 19.798 49.0576C19.4966 49.5041 19.4184 50.0534 19.5839 50.5645C19.7485 51.0733 20.131 51.4698 20.6335 51.6527L30.3924 55.2047C30.8907 55.386 31.4354 55.3304 31.887 55.052C32.3389 54.7736 32.6343 54.311 32.6971 53.7828C32.769 53.1806 32.9531 52.587 33.2444 52.0179C35.1934 48.2091 40.0647 39.9004 46.4911 37.4813C45.7563 37.0564 45.0699 36.5538 44.4494 35.9773C42.4998 37.1543 40.1712 37.5452 37.9443 37.0666Z" fill="white"/>
<path fill-rule="evenodd" clip-rule="evenodd" d="M36.4848 22.8098C36.3138 22.8557 36.1407 22.8447 35.9858 22.7884C35.7413 22.6994 35.5421 22.4972 35.4686 22.2277C35.3486 21.7874 35.6088 21.3345 36.0501 21.2159C38.6496 20.517 40.749 18.5955 41.666 16.0761C41.8218 15.648 42.2966 15.4277 42.7264 15.5841C43.1561 15.7405 43.3782 16.2145 43.2224 16.6426C42.122 19.6659 39.6032 21.9712 36.4848 22.8098ZM57.5117 18.4746L57.5124 18.4761C57.0372 18.209 56.5395 17.9778 56.0238 17.7901C53.6017 16.9086 50.9711 16.9928 48.6162 18.027C48.4129 18.1163 48.1927 18.1174 47.9989 18.0468C47.7944 17.9724 47.6192 17.8182 47.5241 17.6038C47.3391 17.1866 47.5278 16.6996 47.9458 16.5159C50.6931 15.3093 53.7623 15.2111 56.5881 16.2396C57.0165 16.3956 57.4326 16.5799 57.8377 16.7847C58.2995 12.3688 55.7172 8.02114 51.3458 6.43007C48.2189 5.29196 44.7651 5.79099 42.1101 7.71312C40.9402 5.98443 39.2514 4.66192 37.2702 3.9408C33.2483 2.47697 28.7829 3.74231 26.143 7.01406C25.7394 6.80088 25.3223 6.61572 24.8965 6.46072C19.7472 4.58655 14.0393 7.23524 12.1723 12.3648C10.3053 17.4945 12.9752 23.1925 18.1245 25.0666C18.704 25.2776 19.3019 25.4304 19.9098 25.5307C23.5801 25.9331 27.2469 24.2164 29.2713 21.1392C29.5216 20.7585 30.0352 20.6535 30.4172 20.9036C30.7997 21.1543 30.9066 21.6662 30.6564 22.0468C28.4775 25.3588 24.6683 27.3198 20.7294 27.2364C21.6867 29.5802 23.5914 31.4462 26.0518 32.3417C28.5992 33.2689 31.4015 33.0145 33.7201 31.6811C34.5971 33.1001 35.9155 34.1759 37.5107 34.7565C40.0719 35.6887 42.9501 35.1252 44.9679 33.3696C46.0942 34.7424 47.5583 35.7797 49.2518 36.396C54.4008 38.2701 60.109 35.6215 61.976 30.4919C63.6556 25.8773 61.7409 20.8418 57.5117 18.4746Z" fill="white"/>
</svg>
