<svg width="66" height="55" viewBox="0 0 66 55" fill="none" xmlns="http://www.w3.org/2000/svg">
<path fill-rule="evenodd" clip-rule="evenodd" d="M14.3852 21.2557L5.25372 18.0552C4.76821 17.8836 4.23294 18.126 4.05656 18.5927C3.88018 19.0593 4.13007 19.5752 4.61478 19.7452L13.7463 22.9458C13.8518 22.9829 13.9598 23 14.0657 23C14.4473 23 14.8052 22.7736 14.9434 22.4084C15.1198 21.9417 14.8699 21.4258 14.3852 21.2557ZM48.9578 39.9654V41.4748C48.9578 45.0768 51.676 49.2186 51.676 51.0651C51.676 53.2387 49.9036 55.0011 47.7097 55C45.5148 55.0011 43.7433 53.2387 43.7433 51.0651C43.7433 49.2186 46.4616 45.0768 46.4616 41.4748V40.4456C46.4616 38.9792 45.4551 38.0304 44.5884 37.7715L1.01755 22.0808C0.216556 21.7914 -0.198086 20.9118 0.0931342 20.1197L4.91671 7.00664C5.1379 6.40466 5.72436 6 6.37545 6C6.55337 6 6.72921 6.03115 6.8977 6.09166L52.9826 22.6892C53.7833 22.9782 54.1982 23.8572 53.9068 24.6494L49.6111 36.327C49.0499 37.7442 48.9578 39.4021 48.9578 39.9654ZM58.4715 22.1603C56.6714 23.0648 56.2524 23.3463 55.3195 25.9691C55.3184 25.9723 51.9418 34.9796 51.0575 37.3394C50.8901 37.7853 51.0974 38.1492 51.5607 37.9387L58.6928 34.7022C59.7532 34.2206 61.0339 32.8604 61.4333 31.7911L65.9567 19.7165C66.1153 19.299 65.827 18.8179 65.2742 19.0695L58.4715 22.1603ZM52.1857 20.1997L8.25931 4.49911C7.83895 4.32494 7.96883 3.82517 8.36893 3.63275C8.58498 3.5288 15.3444 0.432288 15.3444 0.432288C15.9342 0.161834 16.8144 0 17.6992 0C18.3631 0 18.9811 0.0905171 19.4397 0.254408C19.4397 0.254408 64.1161 16.2289 64.3737 16.3168C65.2409 16.613 65.1526 17.4761 64.4456 17.7772C63.6841 18.1018 58.2267 20.6176 58.2267 20.6176C56.757 21.2036 54.9132 21.155 52.1857 20.1997Z" fill="white"/>
</svg>
