<svg width="88" height="48" viewBox="0 0 88 48" fill="none" xmlns="http://www.w3.org/2000/svg">
<path fill-rule="evenodd" clip-rule="evenodd" d="M48.3578 27.0336C48.3578 27.0336 46.809 30.6194 43.4529 32.481C40.0973 34.3427 36.2055 33.7749 36.2055 33.7749L48.3578 27.0336ZM23.4799 40.9628C23.4799 40.9628 21.9306 44.5492 18.575 46.4108C15.2189 48.2719 11.3271 47.7041 11.3271 47.7041L23.4799 40.9628ZM31.5309 27.1594C31.5309 27.1594 27.6386 26.5911 24.283 28.4527C20.9269 30.3138 19.3787 33.9007 19.3787 33.9007L31.5309 27.1594ZM73.9776 10.445C71.237 11.9651 68.0585 11.502 68.0585 11.502C68.0585 11.502 69.3235 8.57241 72.0642 7.05222C74.8048 5.53204 77.9833 5.99622 77.9833 5.99622C77.9833 5.99622 76.7183 8.92477 73.9776 10.445ZM77.8132 4.63701C75.4367 5.95537 72.6801 5.55173 72.6801 5.55173C72.6801 5.55173 73.7768 3.01264 76.1533 1.69428C78.5304 0.375915 81.2859 0.778461 81.2859 0.778461C81.2859 0.778461 80.1903 3.31864 77.8132 4.63701ZM80.7213 9.79313C78.3447 11.1115 75.5892 10.7095 75.5892 10.7095C75.5892 10.7095 76.6854 8.16932 79.0619 6.85095C81.4385 5.53259 84.1951 5.93568 84.1951 5.93568C84.1951 5.93568 83.0984 8.47477 80.7213 9.79313ZM84.2296 4.46213C81.8525 5.7805 79.0965 5.37741 79.0965 5.37741C79.0965 5.37741 80.1932 2.83832 82.5703 1.51995C84.9468 0.201588 87.7023 0.603588 87.7023 0.603588C87.7023 0.603588 86.6062 3.14377 84.2296 4.46213ZM67.3606 10.2642C64.0045 12.1259 60.1128 11.557 60.1128 11.557C60.1128 11.557 61.6616 7.97115 65.0177 6.10952C68.3732 4.24788 72.265 4.81624 72.265 4.81624C72.265 4.81624 70.7168 8.40261 67.3606 10.2642ZM71.099 16.8927C67.7429 18.7543 63.8511 18.1848 63.8511 18.1848C63.8511 18.1848 65.3999 14.599 68.7555 12.7374C72.1116 10.8758 76.0033 11.4441 76.0033 11.4441C76.0033 11.4441 74.4551 15.031 71.099 16.8927ZM52.6655 19.2958C52.7332 19.1387 54.3661 15.4312 57.9263 13.4567C61.4859 11.4821 65.5256 12.0423 65.6961 12.0674L66.7565 12.2223L66.3347 13.1992C66.267 13.3558 64.6346 17.0649 61.0745 19.0394C57.5149 21.0145 53.4735 20.4521 53.3035 20.4276L52.2437 20.2727L52.6655 19.2958Z" fill="white"/>
<path fill-rule="evenodd" clip-rule="evenodd" d="M52.223 21.7695L50.1033 21.4591L50.947 19.5064C50.9877 19.4115 51.5614 18.1095 52.7367 16.6149L8.29505 41.2667C6.859 42.0631 6.34585 43.8636 7.14885 45.2878C7.9524 46.712 9.76741 47.2209 11.2035 46.424L55.6484 21.7705C53.746 21.9816 52.3259 21.7847 52.223 21.7695ZM16.8241 28.8519C16.8241 28.8519 15.2753 32.4377 11.9192 34.2993C8.56367 36.1609 4.67188 35.5931 4.67188 35.5931L16.8241 28.8519ZM40.244 13.3541C37.5034 14.8743 34.3249 14.4112 34.3249 14.4112C34.3249 14.4112 35.5899 11.4816 38.3306 9.9614C41.0712 8.44122 44.2497 8.9054 44.2497 8.9054C44.2497 8.9054 42.9847 11.834 40.244 13.3541ZM44.0796 7.54624C41.703 8.8646 38.9464 8.46097 38.9464 8.46097C38.9464 8.46097 40.0431 5.92188 42.4197 4.60351C44.7968 3.28515 47.5523 3.6877 47.5523 3.6877C47.5523 3.6877 46.4567 6.22788 44.0796 7.54624ZM46.9876 12.7024C44.611 14.0207 41.8555 13.6187 41.8555 13.6187C41.8555 13.6187 42.9517 11.0785 45.3282 9.76019C47.7048 8.44182 50.4614 8.84491 50.4614 8.84491C50.4614 8.84491 49.3647 11.384 46.9876 12.7024ZM50.496 7.37131C48.1189 8.68968 45.3629 8.28659 45.3629 8.28659C45.3629 8.28659 46.4596 5.7475 48.8367 4.42913C51.2132 3.11077 53.9687 3.51277 53.9687 3.51277C53.9687 3.51277 52.8726 6.05295 50.496 7.37131ZM33.627 13.1734C30.2709 15.0351 26.3791 14.4661 26.3791 14.4661C26.3791 14.4661 27.9279 10.8803 31.284 9.01869C34.6396 7.15706 38.5314 7.72542 38.5314 7.72542C38.5314 7.72542 36.9831 11.3118 33.627 13.1734ZM37.3653 19.8018C34.0092 21.6635 30.1174 21.094 30.1174 21.094C30.1174 21.094 31.6662 17.5082 35.0218 15.6466C38.3779 13.7849 42.2697 14.3533 42.2697 14.3533C42.2697 14.3533 40.7214 17.9402 37.3653 19.8018ZM18.9319 22.205C18.9995 22.0479 20.6325 18.3404 24.1926 16.3659C27.7522 14.3913 31.792 14.9515 31.9625 14.9766L33.0229 15.1315L32.601 16.1084C32.5334 16.2649 30.901 19.974 27.3408 21.9486C23.7812 23.9237 19.7398 23.3613 19.5699 23.3368L18.51 23.1819L18.9319 22.205Z" fill="white"/>
<path fill-rule="evenodd" clip-rule="evenodd" d="M19.0032 19.5234L1.52583 29.2183C0.182725 29.9629 -0.367275 31.5993 0.255875 32.994C0.967025 34.5851 2.90303 35.2254 4.43423 34.3756L21.9149 24.6796C20.013 24.8902 18.5923 24.6933 18.4895 24.678L16.3698 24.3682L17.2135 22.4149C17.2542 22.3205 17.8278 21.0185 19.0032 19.5234Z" fill="white"/>
</svg>
