<svg width="65" height="50" viewBox="0 0 65 50" fill="none" xmlns="http://www.w3.org/2000/svg">
<g clip-path="url(#clip0_41_215)">
<path fill-rule="evenodd" clip-rule="evenodd" d="M53.9604 2.5498C44.573 -2.62994 33.2382 3.17072 28.6318 15.5073C34.3663 16.1446 38.5833 18.9714 39.2548 23.2524C39.4159 24.3308 39.3488 25.4256 39.0802 26.5204C39.2011 33.3341 37.2 39.8374 33.5203 44.4125C34.6484 45.5236 35.9108 46.4877 37.294 47.2557C46.6814 52.4354 58.0161 46.6348 62.6225 34.2818C67.2289 21.9452 63.3477 7.72954 53.9604 2.5498ZM52.5905 16.5857C51.7713 17.4844 50.4015 17.272 49.542 16.0956C48.6825 14.9191 48.6556 13.2524 49.4882 12.3537C50.3075 11.455 51.6773 11.6838 52.5368 12.8439C53.3829 14.004 53.4097 15.6871 52.5905 16.5857ZM52.6845 9.28183C51.8653 10.1805 50.4955 9.95176 49.636 8.79163C48.7765 7.61516 48.7496 5.94849 49.5823 5.0498C50.4015 4.15111 51.7713 4.37987 52.6308 5.54C53.4769 6.70013 53.5037 8.38313 52.6845 9.28183ZM57.5192 14.004C56.6866 14.9027 55.3302 14.674 54.4707 13.5139C53.6112 12.3374 53.5843 10.6707 54.4035 9.77202C55.2362 8.87333 56.5926 9.10209 57.4521 10.2622C58.3116 11.4223 58.3384 13.1054 57.5192 14.004Z" fill="white"/>
<path fill-rule="evenodd" clip-rule="evenodd" d="M37.8447 24.0363C36.8241 17.7782 27.7187 14.7063 17.5121 17.1736C7.35918 19.6246 -0.054041 26.6507 0.886042 32.8925L0.832323 32.9089C1.10092 33.9219 1.4098 34.9023 1.78583 35.8991C6.44596 48.2193 17.8075 53.9546 27.1681 48.7095C33.9769 44.9023 37.8581 36.3239 37.6701 27.1899C37.9522 26.1278 38.0193 25.0657 37.8447 24.0363ZM20.5875 36.3566C11.2941 38.6115 3.07509 36.2585 2.22902 31.1115C1.38294 25.9644 8.24555 19.9514 17.5389 17.7128C26.8323 15.4579 35.0648 17.8108 35.8974 22.9579C36.7435 28.105 29.8809 34.1017 20.5875 36.3566Z" fill="white"/>
<path fill-rule="evenodd" clip-rule="evenodd" d="M32.7544 23.6115C32.3515 21.1278 29.7192 19.4121 25.7172 19.0036C23.4341 18.7748 20.8556 18.9873 18.2502 19.6082C17.7399 19.7226 17.2564 19.7226 16.7595 19.8696C15.9403 20.0657 15.1614 20.4252 14.4362 20.6703C8.71509 22.5984 4.6593 26.7324 5.37108 29.9023C5.58595 30.85 6.21715 31.618 7.14381 32.1572C8.32563 33.4807 10.4207 34.3794 13.1603 34.6572C15.4434 34.886 18.0219 34.6736 20.6273 34.0526C24.1459 33.203 27.3422 31.667 29.6252 29.7389C31.9754 27.7781 33.0901 25.6049 32.7544 23.6115ZM29.3029 29.1997C27.087 31.0788 23.9579 32.5657 20.5198 33.399C17.9682 34.02 15.4434 34.216 13.2141 33.9873C10.4341 33.7095 8.37934 32.7945 7.35868 31.4709C7.23781 31.2422 7.14381 30.9807 7.07666 30.7193C6.35145 27.5494 10.4072 23.4154 16.1417 21.4873C19.3917 20.3925 24.7636 19.3631 26.9527 20.0167C26.8587 19.9513 26.7513 19.886 26.6438 19.8369C29.8401 20.3598 31.8949 21.7977 32.2172 23.7585C32.4858 25.4415 31.4517 27.386 29.3029 29.1997Z" fill="white"/>
</g>
<defs>
<clipPath id="clip0_41_215">
<rect width="65" height="50" fill="white"/>
</clipPath>
</defs>
</svg>
