<svg width="51" height="46" viewBox="0 0 51 46" fill="none" xmlns="http://www.w3.org/2000/svg">
<path d="M25.5 0C17.6052 0 0 4.54359 0 15.6579C0 29.5084 14.4024 25.5639 14.4024 25.5639C14.4024 25.5639 11.1792 24.3457 11.1792 21.7693C11.1792 19.2528 12.3624 17.745 14.433 17.6851C17.8092 17.5952 17.7072 20.9504 17.8092 22.3784C18.1662 27.4213 11.2608 36.4486 12.546 41.142C13.8312 45.8753 21.1344 46.1948 25.5 45.9352C29.8758 46.1849 37.1688 45.8653 38.454 41.142C39.7392 36.4386 32.8338 27.4113 33.1908 22.3784C33.2928 20.9504 33.1908 17.5952 36.567 17.6851C38.6376 17.745 39.8208 19.2528 39.8208 21.7693C39.8208 24.3457 36.5976 25.5639 36.5976 25.5639C36.5976 25.5639 51 29.5084 51 15.6579C51 4.54359 32.9562 0 25.5 0Z" fill="white"/>
</svg>
