<svg width="54" height="54" viewBox="0 0 54 54" fill="none" xmlns="http://www.w3.org/2000/svg">
<path d="M5.85596 28.0699C7.06151 28.2399 8.43929 28.4099 10.506 27.8999C12.9171 27.3899 13.7782 26.5399 14.9837 25.6899C16.1893 24.6699 17.5671 23.6499 20.4948 22.9699C24.2837 22.1199 25.6615 21.9499 27.7282 21.9499C24.6282 11.2399 18.9448 6.30991 15.6726 4.09991C14.4671 3.24991 13.2615 2.39991 12.2282 1.37991C11.3671 0.359908 9.81707 0.699908 9.81707 0.699908C9.81707 0.699908 8.43929 1.03991 8.09485 2.22991C7.57818 3.75991 6.88929 4.94991 6.2004 6.30991C4.13373 9.70991 1.20596 16.6799 3.1004 28.0699C4.13373 27.8999 4.99485 28.0699 5.85596 28.0699Z" fill="white"/>
<path d="M21.8722 41.4996C21.8722 37.7596 23.4222 34.6996 23.4222 34.3596C25.4889 29.7696 27.7278 26.1996 29.9667 23.3096C26.0056 23.4796 25.4889 23.3096 20.6667 24.3296C15.3278 25.5196 16.0167 28.0696 10.6778 29.2596C5.33889 30.4496 4.99444 28.2396 0 30.2796C0.344444 32.3196 0.861111 34.3596 1.55 36.5696C1.72222 37.0796 2.75556 40.4796 5.33889 43.5396C7.06111 45.5796 9.12778 47.1096 11.3667 47.9596C14.1222 49.1496 17.3944 49.3196 20.6667 48.4696C21.5278 48.2996 22.2167 48.1296 23.0778 47.7896C22.2167 45.9196 21.8722 43.8796 21.8722 41.4996ZM6.88889 37.7596C6.71667 37.7596 6.71667 37.7596 6.54444 37.4196C6.54444 37.2496 6.37222 37.0796 6.2 36.9096C6.2 36.7396 6.02778 36.5696 6.02778 36.3996C6.02778 36.2296 5.85556 36.0596 5.85556 35.8896C5.85556 35.7196 5.85556 35.5496 5.85556 35.3796C5.85556 35.0396 5.85556 34.8696 6.02778 34.8696C6.2 34.8696 6.2 35.0396 6.37222 35.2096C6.37222 35.3796 6.71667 35.3796 6.71667 35.7196C6.71667 35.8896 6.88889 36.0596 6.88889 36.2296C6.88889 36.3996 6.88889 36.5696 6.88889 36.7396C6.88889 36.9096 7.06111 37.0796 7.06111 37.2496C7.06111 37.5896 6.88889 37.7596 6.88889 37.7596ZM9.3 32.9996C9.47222 32.9996 9.47222 33.1696 9.64444 33.3396C9.81667 33.5096 9.98889 33.6796 9.98889 33.8496C9.98889 34.0196 10.1611 34.3596 10.1611 34.5296C10.1611 34.8696 10.1611 35.2096 9.98889 35.2096C9.81667 35.2096 9.64444 35.0396 9.47222 34.8696C9.3 34.6996 9.47222 34.5296 9.3 34.1896C9.3 34.0196 9.12778 33.6796 9.12778 33.5096C9.12778 33.1696 9.12778 32.9996 9.3 32.9996ZM10.3333 40.8196C10.1611 40.8196 9.98889 40.8196 9.81667 40.4796C9.64444 40.3096 9.64444 40.1396 9.64444 39.9696C9.64444 39.7996 9.47222 39.6296 9.3 39.4596C9.3 39.2896 9.3 39.1196 9.12778 38.9496C9.12778 38.7796 9.12778 38.6096 8.95556 38.4396C8.95556 38.2696 8.78333 38.0996 8.78333 37.9296C8.78333 37.7596 8.61111 37.5896 8.61111 37.4196C8.61111 37.0796 8.61111 37.0796 8.78333 37.0796C8.95556 37.0796 8.95556 37.0796 9.12778 37.2496C9.3 37.4196 9.3 37.5896 9.47222 37.7596C9.47222 37.9296 9.64444 38.0996 9.81667 38.2696C9.81667 38.4396 9.81667 38.6096 9.98889 38.7796C9.98889 38.9496 10.1611 39.1196 10.1611 39.2896C10.1611 39.4596 10.3333 39.6296 10.3333 39.7996C10.3333 39.9696 10.1611 40.1396 10.1611 40.3096C10.3333 40.6496 10.3333 40.8196 10.3333 40.8196ZM13.95 43.1996C13.95 43.5396 13.95 43.8796 13.7778 43.8796C13.6056 43.8796 13.6056 43.5396 13.4333 43.3696C13.4333 43.1996 13.2611 43.0296 13.2611 42.6896C13.2611 42.5196 13.2611 42.1796 13.2611 42.0096C13.2611 41.6696 13.2611 41.3296 13.4333 41.3296C13.6056 41.3296 13.7778 41.4996 13.7778 41.8396C13.7778 42.0096 13.95 42.1796 13.95 42.5196C14.1222 42.8596 14.1222 43.0296 13.95 43.1996ZM14.1222 36.7396C14.1222 37.0796 13.95 37.2496 13.7778 37.2496C13.6056 37.2496 13.4333 37.0796 13.4333 36.9096C13.4333 36.7396 13.2611 36.5696 13.0889 36.3996C13.0889 36.2296 13.0889 36.0596 13.0889 35.7196C13.0889 35.5496 12.9167 35.3796 12.9167 35.0396C12.9167 34.8696 12.9167 34.5296 12.9167 34.3596C12.9167 34.0196 13.0889 33.8496 13.0889 33.8496C13.2611 33.8496 13.2611 34.0196 13.4333 34.3596C13.6056 34.5296 13.7778 34.6996 13.7778 34.8696C13.7778 35.0396 14.1222 35.2096 14.1222 35.3796C14.1222 35.5496 14.1222 35.8896 14.1222 36.0596C13.95 36.3996 14.1222 36.5696 14.1222 36.7396ZM16.5333 40.3096C16.3611 40.3096 16.1889 40.1396 16.1889 39.9696C16.1889 39.7996 16.0167 39.6296 16.0167 39.2896C16.0167 38.9496 15.8444 38.7796 15.8444 38.6096C15.8444 38.2696 15.8444 37.9296 16.0167 37.9296C16.1889 37.9296 16.1889 38.0996 16.3611 38.4396C16.3611 38.6096 16.5333 38.7796 16.5333 39.1196C16.5333 39.2896 16.7056 39.6296 16.7056 39.7996C16.7056 40.1396 16.5333 40.3096 16.5333 40.3096ZM17.05 33.5096C16.8778 33.5096 16.7056 33.3396 16.7056 32.9996C16.7056 32.8296 16.5333 32.6596 16.5333 32.3196C16.5333 32.1496 16.5333 31.8096 16.5333 31.6396C16.5333 31.2996 16.5333 31.1296 16.5333 30.9596C16.7056 30.9596 16.8778 31.1296 17.05 31.4696C17.05 31.6396 17.05 31.8096 17.2222 32.1496C17.2222 32.3196 17.3944 32.6596 17.3944 32.8296C17.2222 33.3396 17.2222 33.5096 17.05 33.5096ZM19.2889 44.8996C19.1167 44.8996 18.9444 44.7296 18.7722 44.3896C18.7722 44.2196 18.7722 44.0496 18.6 43.7096C18.6 43.5396 18.6 43.1996 18.6 43.0296C18.6 42.6896 18.6 42.5196 18.7722 42.5196C18.9444 42.5196 18.9444 42.6896 19.1167 43.0296C19.1167 43.1996 19.2889 43.3696 19.2889 43.7096C19.2889 43.8796 19.2889 44.2196 19.4611 44.3896C19.4611 44.5596 19.2889 44.8996 19.2889 44.8996ZM20.3222 39.6296C20.3222 39.9696 20.3222 40.1396 20.15 40.1396C19.9778 40.1396 19.9778 39.9696 19.8056 39.6296C19.8056 39.4596 19.6333 39.2896 19.6333 39.1196C19.6333 38.9496 19.4611 38.7796 19.4611 38.4396C19.4611 38.2696 19.4611 37.9296 19.4611 37.7596C19.4611 37.5896 19.2889 37.2496 19.4611 37.0796C19.4611 36.7396 19.6333 36.5696 19.8056 36.5696C19.9778 36.5696 20.15 36.5696 20.3222 36.9096C20.3222 37.0796 20.3222 37.2496 20.4944 37.5896C20.4944 37.7596 20.6667 37.9296 20.6667 38.0996C20.6667 38.2696 20.6667 38.6096 20.6667 38.7796C20.3222 39.1196 20.4944 39.2896 20.3222 39.6296ZM22.9056 27.7296C23.0778 27.7296 23.25 27.8996 23.4222 28.0696C23.4222 28.2396 23.5944 28.4096 23.5944 28.7496C23.5944 28.9196 23.7667 29.2596 23.7667 29.4296C23.7667 29.7696 23.7667 29.9396 23.5944 30.1096C23.4222 30.2796 23.4222 29.9396 23.25 29.5996C23.25 29.4296 23.0778 29.2596 23.0778 28.9196C23.0778 28.7496 22.9056 28.4096 22.9056 28.2396C22.7333 27.8996 22.7333 27.7296 22.9056 27.7296ZM21.5278 33.6796C21.5278 33.5096 21.3556 33.3396 21.3556 33.1696C21.3556 32.9996 21.1833 32.6596 21.1833 32.4896C21.1833 32.3196 21.1833 31.9796 21.1833 31.8096C21.1833 31.4696 21.1833 31.2996 21.3556 31.1296C21.5278 31.1296 21.7 31.2996 21.8722 31.6396C22.0444 31.8096 22.0444 31.9796 22.0444 32.1496C22.0444 32.3196 22.2167 32.4896 22.3889 32.6596C22.3889 32.8296 22.5611 32.9996 22.5611 33.3396C22.5611 33.5096 22.5611 33.8496 22.5611 34.0196C22.5611 34.3596 22.5611 34.5296 22.3889 34.5296C22.2167 34.5296 22.0444 34.3596 21.8722 34.1896C21.7 34.0196 21.5278 33.8496 21.5278 33.6796Z" fill="white"/>
<path d="M53.1074 18.5876C52.7684 17.2286 52.4295 15.6997 52.4295 14.3406C52.26 12.9815 51.0736 12.302 51.0736 12.302C51.0736 12.302 49.8872 11.6225 48.7007 12.302C47.3449 12.9815 46.1584 13.6611 44.6331 14.0008C40.0569 15.3599 31.2436 20.1166 24.4641 35.2361C24.4641 35.2361 18.871 46.788 29.5487 52.3941C40.2264 58.0002 46.6669 47.1278 46.6669 47.1278C55.4802 33.0276 54.4633 23.1745 53.1074 18.5876ZM50.9041 18.9274C50.9041 19.0973 50.9041 19.0973 50.9041 19.2672V19.6069C50.9041 19.7768 50.9041 19.9467 50.9041 20.1166C50.9041 20.2865 50.9041 20.4563 50.9041 20.6262C50.9041 20.7961 50.9041 20.966 50.9041 21.1359V21.6455V22.1552C50.9041 22.325 50.9041 22.4949 50.9041 22.6648L51.0736 23.1745L51.2431 23.6841C51.2431 24.0239 51.4125 24.3636 51.4125 24.8733C51.4125 25.0432 51.4125 25.213 51.582 25.3829L51.7515 25.8926L51.921 26.4022L52.0905 26.9119V27.0817V27.2516C52.0905 27.4215 51.921 27.5914 51.921 27.7613L51.7515 28.2709C51.582 28.6107 51.4125 28.9504 51.2431 29.2902L50.5651 30.1396L50.3956 30.6493L50.2261 31.1589C50.2261 31.3288 50.0566 31.4987 50.0566 31.6686C50.0566 32.0083 49.8872 32.3481 49.8872 32.6878L49.5482 33.1975C49.5482 33.3674 49.5482 33.5373 49.3787 33.7071L49.2092 34.2168C49.2092 34.3867 49.2092 34.5565 49.0397 34.7264C49.0397 35.0662 48.8702 35.406 48.8702 35.9156V36.0855L48.3618 36.5951L48.0228 36.9349C47.8533 37.1048 47.6838 37.2747 47.6838 37.2747C47.5143 37.4445 47.3448 37.6144 47.3448 37.6144L47.0059 37.9542L46.6669 38.2939C46.4974 38.4638 46.3279 38.4638 46.1584 38.6337L45.989 38.8036L45.8195 38.9735L45.989 38.8036L46.1584 38.6337C46.3279 38.4638 46.3279 38.2939 46.4974 38.1241L46.8364 37.6144L47.1754 37.1048C47.3448 36.9349 47.3448 36.765 47.5143 36.5951C47.6838 36.4252 47.6838 36.2554 47.8533 36.0855L48.1923 35.5758L48.5313 35.2361C48.5313 34.8963 48.5313 34.5565 48.7007 34.2168C48.7007 34.0469 48.7007 33.877 48.7007 33.7071V33.1975C48.7007 33.0276 48.7007 32.8577 48.7007 32.6878V32.1782C48.7007 31.8384 48.8702 31.4987 48.8702 31.1589L48.7007 30.3095L48.0228 29.7999L47.8533 29.63V29.4601L47.6838 28.4408L46.8364 28.101L46.6669 26.9119L47.0059 27.9312L48.0228 28.4408V28.6107L48.3618 29.4601L49.2092 29.9697H49.3787L49.5482 29.63L49.7177 29.1203C49.8872 28.7806 50.0566 28.4408 50.2261 28.101L50.3956 27.5914C50.3956 27.4215 50.5651 27.4215 50.5651 27.2516V26.9119V26.4022V25.7227C50.5651 25.5528 50.5651 25.3829 50.5651 25.213C50.5651 24.8733 50.3956 24.5335 50.3956 24.0239V23.5142V23.0046C50.3956 22.8347 50.3956 22.6648 50.3956 22.4949V21.9853V21.4756C50.3956 21.3058 50.3956 21.1359 50.3956 20.966C50.3956 20.7961 50.3956 20.6262 50.3956 20.4563C50.3956 20.2865 50.3956 20.1166 50.5651 19.9467V19.6069C50.7346 19.0973 50.7346 19.0973 50.9041 18.9274C50.7346 18.7575 50.9041 18.5876 50.9041 18.4178C50.9041 18.5876 50.9041 18.7575 50.9041 18.9274ZM44.972 19.7768L45.65 20.1166L45.989 20.6262L46.4974 20.966V21.1359V21.3058L46.6669 21.1359V20.966V20.7961V20.6262V20.4563V20.2865C46.6669 20.1166 46.6669 19.9467 46.4974 19.7768V19.6069L46.6669 19.4371L46.8364 19.2672L47.0059 19.0973L47.1754 18.9274L47.3448 18.7575L47.5143 18.5876L47.6838 18.4178L47.8533 18.2479L48.0228 18.078C48.0228 18.078 48.0228 18.2479 47.8533 18.2479C47.8533 18.2479 47.8533 18.4178 47.6838 18.4178C47.6838 18.4178 47.6838 18.5876 47.5143 18.5876C47.5143 18.5876 47.5143 18.7575 47.3448 18.7575C47.3448 18.7575 47.3448 18.9274 47.1754 18.9274C47.1754 18.9274 47.1754 19.0973 47.0059 19.0973L47.1754 19.6069C47.1754 19.7768 47.1754 19.7768 47.3448 19.9467C47.3448 19.9467 47.3448 20.1166 47.5143 20.1166V20.2865V20.4563V20.6262L47.6838 20.966V21.1359L47.5143 21.3058C47.3448 21.4756 47.3448 21.4756 47.1754 21.6455C47.0059 21.8154 47.0059 21.8154 46.8364 21.9853L46.6669 22.1552L46.4974 22.325L46.3279 22.4949V22.6648C46.3279 22.8347 46.3279 23.0046 46.4974 23.0046C46.4974 23.1745 46.4974 23.3443 46.6669 23.3443V23.5142V23.6841V23.854C46.4974 24.0239 46.4974 24.0239 46.3279 24.1937L46.1584 24.3636L45.989 24.5335L45.8195 24.7034L45.65 24.8733L45.4805 25.0432L45.311 25.213C45.311 25.213 45.311 25.0432 45.4805 25.0432C45.4805 25.0432 45.4805 24.8733 45.65 24.8733C45.65 24.8733 45.65 24.7034 45.8195 24.7034L45.989 24.5335C45.989 24.5335 45.989 24.3636 46.1584 24.3636C46.1584 24.3636 46.1584 24.1937 46.3279 24.1937L46.4974 24.0239C46.4974 24.0239 46.4974 24.0239 46.4974 23.854L46.3279 23.6841C46.3279 23.5142 46.1584 23.3443 46.1584 23.3443C46.1584 23.1745 45.989 23.0046 45.989 23.0046C45.989 22.8347 45.8195 22.6648 45.8195 22.6648V22.4949L45.989 22.325C45.989 22.325 45.989 22.1552 46.1584 22.1552V21.9853L45.989 21.4756L45.4805 21.1359V20.4563L44.972 19.7768L44.6331 19.0973L44.972 19.7768ZM41.5823 24.7034L41.4128 25.8926L41.7518 26.9119C41.9213 26.742 41.9213 26.5721 42.0907 26.4022C42.2602 26.2323 42.2602 26.0624 42.4297 25.8926L42.5992 25.7227H42.7687C42.9382 25.7227 42.9382 25.7227 43.1077 25.7227H43.4466C43.6161 25.7227 43.6161 25.7227 43.7856 25.7227C43.9551 25.7227 43.9551 25.7227 44.1246 25.7227C44.2941 25.7227 44.2941 25.7227 44.4636 25.7227C44.6331 25.7227 44.6331 25.7227 44.8025 25.7227C44.972 25.7227 44.972 25.7227 45.1415 25.7227C45.311 25.7227 45.311 25.7227 45.4805 25.7227L45.311 25.8926C45.1415 25.8926 45.1415 26.0624 44.972 26.0624C44.8025 26.0624 44.8025 26.2323 44.6331 26.2323C44.4636 26.2323 44.4636 26.4022 44.2941 26.4022C44.1246 26.4022 44.1246 26.5721 43.9551 26.5721C43.7856 26.5721 43.7856 26.742 43.6161 26.742L43.2772 26.9119C43.2772 26.9119 43.2772 26.9119 43.1077 26.9119C43.1077 27.0817 42.9382 27.2516 42.9382 27.4215C42.9382 27.5914 42.7687 27.7613 42.5992 27.9312C42.4297 28.101 42.4297 28.2709 42.2602 28.4408C42.0907 27.9312 42.0907 28.101 41.9213 28.2709V28.4408H41.7518C41.5823 28.4408 41.4128 28.6107 41.2433 28.6107L40.9043 28.7806L40.5654 28.9504C40.5654 28.9504 40.5654 28.9504 40.3959 28.9504H40.5654H41.5823H41.7518L42.5992 29.63H43.6161L44.6331 30.3095L43.7856 29.9697L42.5992 30.1396L41.5823 29.7999H40.5654H40.3959L39.7179 29.4601C39.7179 29.4601 39.7179 29.63 39.5484 29.63C39.3789 29.7999 39.3789 29.9697 39.2095 30.1396C39.04 30.3095 39.04 30.4794 38.8705 30.6493L38.701 30.8191L38.5315 30.989L38.362 31.1589H38.1925H37.8536H37.5146C37.3451 31.1589 37.3451 31.1589 37.1756 31.1589C37.0061 31.1589 37.0061 31.1589 36.8366 31.1589C36.6671 31.1589 36.6671 31.1589 36.4977 31.1589C36.3282 31.1589 36.3282 31.1589 36.1587 31.1589C35.9892 31.1589 35.8197 31.1589 35.4807 31.3288C35.6502 31.1589 35.8197 31.1589 35.9892 30.989C36.1587 30.989 36.1587 30.8191 36.3282 30.8191C36.4977 30.8191 36.4977 30.6493 36.6671 30.6493C36.8366 30.6493 36.8366 30.4794 37.0061 30.4794C37.1756 30.4794 37.1756 30.3095 37.3451 30.3095L37.6841 30.1396H37.8536C37.8536 30.1396 37.8536 29.9697 38.023 29.9697L38.1925 29.63C38.1925 29.4601 38.362 29.2902 38.5315 29.1203C38.701 28.9504 38.701 28.7806 38.8705 28.6107C39.04 28.4408 39.04 28.2709 39.2095 28.101V27.9312H39.3789C39.7179 27.7613 40.0569 27.5914 40.5654 27.4215L40.9043 27.2516H41.0738L41.4128 26.2323L41.2433 25.213V25.0432L41.5823 24.0239L41.4128 23.0046L41.7518 21.8154L41.5823 23.0046V24.7034ZM25.82 46.9579C25.82 46.788 25.82 46.6182 25.82 46.4483C25.82 46.2784 25.82 46.1085 25.82 45.9386C25.82 45.7687 25.82 45.5989 25.82 45.429C25.82 45.2591 25.82 45.0892 25.82 44.9193V44.4097V43.9001C25.82 43.7302 25.82 43.7302 25.82 43.5603C25.82 43.2205 25.6505 43.0506 25.6505 42.7109C25.6505 42.3711 25.481 42.2012 25.481 41.8615C25.481 41.5217 25.481 41.3518 25.3115 41.0121V40.5024C25.3115 40.3325 25.3115 40.1626 25.3115 39.9928V39.8229V39.653L25.6505 38.8036C25.6505 38.6337 25.82 38.4638 25.82 38.4638L25.9894 38.1241C26.1589 37.7843 26.3284 37.6144 26.3284 37.2747C26.4979 37.1048 26.4979 36.765 26.6674 36.5951L27.3453 33.1975V33.0276L27.5148 32.8577L28.7012 31.4987L29.2097 30.8191L29.7182 30.1396L30.3961 28.6107C30.5656 28.101 30.9046 27.5914 31.0741 26.9119V26.742L31.2436 26.5721L32.5995 25.3829L33.9554 24.3636C34.2943 23.854 34.4638 23.3443 34.8028 23.0046L35.3113 22.325L35.8197 21.6455V21.4756L37.3451 20.6262L38.8705 19.7768L39.8874 18.4178L40.3959 17.7382C40.5654 17.5684 40.7348 17.2286 40.9043 17.0587L42.5992 16.3792L43.4466 16.0394C43.7856 15.8695 43.9551 15.8695 44.2941 15.6997C43.9551 15.8695 43.7856 16.0394 43.4466 16.0394L42.5992 16.3792L41.7518 17.9081C41.5823 18.078 41.4128 18.4178 41.2433 18.5876L40.7348 19.2672L39.7179 20.6262L38.1925 21.6455L36.8366 22.4949L36.4977 23.1745L35.9892 24.0239C35.6502 24.5335 35.4807 25.0432 35.1418 25.5528L33.6164 26.9119L32.43 28.101C32.2605 28.4408 32.2605 28.7806 32.091 29.1203H32.5995L34.1248 28.101H34.2943L36.1587 27.9312L37.6841 26.742L39.7179 26.5721L37.8536 27.0817L36.4977 28.4408H36.3282L34.4638 28.9504L33.2774 29.7999H33.1079L31.752 30.1396L31.413 30.989V31.1589L30.9046 31.8384L30.3961 32.518L29.3792 33.7071L28.7012 37.1048V37.2747C28.5318 37.6144 28.3623 37.7843 28.3623 38.1241C28.1928 38.4638 28.0233 38.6337 28.0233 38.9735L27.8538 39.3132C27.8538 39.4831 27.6843 39.653 27.6843 39.653L27.3453 40.3325V40.5024V41.0121C27.3453 41.3518 27.3453 41.5217 27.3453 41.8615C27.3453 42.2012 27.3453 42.3711 27.3453 42.7109C27.3453 43.0506 27.3453 43.2205 27.3453 43.5603C27.3453 43.7302 27.3453 43.9 27.1759 44.0699L27.0064 44.5796L26.8369 45.0892C26.8369 45.2591 26.8369 45.429 26.6674 45.5989C26.6674 45.7688 26.6674 45.9386 26.4979 46.1085C26.4979 46.2784 26.3284 46.4483 26.3284 46.6182C25.9894 46.6182 25.9894 46.788 25.82 46.9579C25.9894 47.1278 25.82 47.2977 25.82 47.4676C25.82 47.2977 25.82 47.1278 25.82 46.9579ZM33.6164 42.7109L33.1079 43.2205L32.43 43.3904L31.9215 43.9001H31.752L31.413 44.0699V44.2398V44.5796V44.9193V45.0892C31.2436 45.2591 31.2436 45.2591 31.0741 45.429L30.2266 46.1085C30.0571 46.2784 30.0571 46.2784 29.8877 46.4483C29.7182 46.6182 29.7182 46.6182 29.5487 46.788C29.3792 46.9579 29.3792 46.9579 29.2097 47.1278C29.0402 47.2977 29.0402 47.2977 28.8707 47.4676C28.7012 47.6375 28.7012 47.6375 28.5318 47.6375C28.3623 47.6375 28.3623 47.8073 28.1928 47.8073C28.1928 47.6375 28.3623 47.6375 28.3623 47.4676C28.3623 47.2977 28.5318 47.2977 28.5318 47.1278C28.5318 46.9579 28.7012 46.9579 28.7012 46.788C28.7012 46.6182 28.8707 46.6182 28.8707 46.4483C28.8707 46.2784 29.0402 46.2784 29.0402 46.1085C29.0402 45.9386 29.2097 45.9386 29.2097 45.7688L29.3792 45.429C29.3792 45.429 29.3792 45.2591 29.5487 45.2591V44.9193V44.5796C29.5487 44.4097 29.5487 44.2398 29.5487 44.2398V43.9001V43.5603V43.2205C29.5487 42.8808 29.5487 42.7109 29.5487 42.3711V42.2012L29.7182 42.0313L29.8877 41.6916L30.0571 41.5217L30.2266 40.5024L29.8877 39.653V39.4831L30.0571 38.4638L29.7182 37.4445L29.8877 36.2554V37.4445L30.3961 38.4638V39.4831L30.9046 40.3325C30.9046 40.1626 31.0741 40.1626 31.0741 39.9928C31.0741 39.9928 31.0741 39.9928 31.2436 39.8229C31.2436 39.653 31.2436 39.4831 31.2436 39.3132C31.2436 38.9735 31.2436 38.8036 31.2436 38.4638C31.2436 38.1241 31.2436 37.9542 31.2436 37.6144C31.2436 37.2747 31.2436 37.1048 31.2436 36.765V36.5951L31.413 36.4252C31.5825 36.2554 31.752 36.0855 31.9215 35.9156L32.091 35.7457L32.2605 35.5758C32.43 35.406 32.43 35.406 32.5995 35.2361C32.7689 35.0662 32.7689 35.0662 32.9384 35.0662C33.1079 35.0662 33.1079 34.8963 33.2774 34.8963C33.2774 34.8963 33.4469 34.8963 33.4469 34.7264C33.4469 34.7264 33.6164 34.7264 33.6164 34.5565C33.7859 34.5565 33.7859 34.3867 33.9554 34.3867C33.9554 34.5565 33.7859 34.5565 33.7859 34.7264C33.7859 34.7264 33.7859 34.8963 33.6164 34.8963C33.6164 34.8963 33.6164 35.0662 33.4469 35.0662C33.4469 35.2361 33.2774 35.2361 33.2774 35.406C33.2774 35.5758 33.1079 35.5758 33.1079 35.7457C33.1079 35.9156 32.9384 35.9156 32.9384 36.0855L32.7689 36.2554C32.7689 36.2554 32.7689 36.4252 32.5995 36.4252C32.43 36.5951 32.43 36.765 32.2605 36.9349C32.2605 37.1048 32.2605 37.4445 32.2605 37.6144C32.2605 37.9542 32.2605 38.1241 32.2605 38.4638C32.2605 38.8036 32.2605 38.9735 32.2605 39.3132C32.2605 39.653 32.2605 39.8229 32.2605 40.1626V40.3325L32.091 40.5024C32.091 40.6723 31.9215 40.6723 31.9215 40.8422C31.9215 41.0121 31.752 41.0121 31.752 41.1819C31.5825 41.3518 31.413 41.5217 31.2436 41.6916C31.0741 41.8615 30.9046 42.0314 30.7351 42.2012L30.5656 42.541L30.3961 42.7109C30.3961 42.8808 30.3961 43.0506 30.3961 43.2205V43.5603H30.5656L31.0741 43.2205H31.2436H32.091L32.7689 42.8808H33.6164V42.7109ZM34.2943 48.317L33.7859 48.4869L33.2774 48.6567C33.1079 48.6567 32.9384 48.8266 32.7689 48.8266C32.5995 48.8266 32.43 48.9965 32.2605 48.9965C32.43 48.8266 32.5995 48.8266 32.7689 48.6567C32.9384 48.4869 33.1079 48.4869 33.2774 48.317L33.7859 47.9772L34.2943 47.6375L34.8028 47.2977C34.9723 47.1278 35.1418 47.1278 35.3113 46.9579C35.4807 46.788 35.6502 46.788 35.8197 46.6182L36.1587 46.4483C36.1587 46.2784 36.3282 46.1085 36.3282 45.9386L36.4977 45.429L36.8366 44.9193L37.0061 44.5796C37.0061 44.4097 37.0061 44.4097 37.1756 44.2398L37.5146 43.7302L37.6841 43.3904C37.6841 43.2205 37.8536 43.2205 37.8536 43.0506L38.362 42.0313H38.5315L39.2095 41.3518L39.5484 39.8229L38.701 38.6337V38.4638L39.04 36.765L38.5315 35.0662L38.8705 33.1975V35.0662L39.5484 36.765V36.9349V38.6337L40.2264 40.3325V40.5024V40.6723L40.3959 40.5024L40.9043 40.1626L41.2433 39.8229L41.4128 39.4831C41.4128 39.3132 41.5823 39.1434 41.5823 38.9735L41.7518 38.4638C41.7518 38.2939 41.9213 38.1241 41.9213 37.9542L42.0907 37.4445L42.2602 36.9349C42.2602 36.765 42.4297 36.5951 42.4297 36.4252L42.5992 35.9156V35.7457L42.7687 35.5758L42.9382 35.406C43.1077 35.2361 43.1077 35.0662 43.2772 34.8963L43.6161 34.3867L43.9551 33.877C44.1246 33.7071 44.1246 33.5373 44.2941 33.3674C44.4636 33.1975 44.4636 33.0276 44.6331 32.8577L44.8025 32.6878L44.972 32.518C45.1415 32.3481 45.311 32.1782 45.311 32.0083C45.311 32.1782 45.1415 32.3481 45.1415 32.518C45.1415 32.6878 44.972 32.6878 44.972 32.8577L44.8025 33.1975C44.6331 33.3674 44.6331 33.5373 44.4636 33.7071C44.2941 33.877 44.2941 34.0469 44.1246 34.2168L43.7856 34.7264L43.4466 35.2361C43.9551 34.8963 43.7856 35.0662 43.7856 35.2361L43.6161 35.406C43.6161 35.406 43.6161 35.5758 43.4466 35.5758L43.2772 36.0855C43.2772 36.2554 43.1077 36.4252 43.1077 36.5951L42.9382 37.1048L42.7687 37.6144C42.7687 37.7843 42.5992 37.9542 42.5992 38.1241L42.4297 38.6337C42.4297 38.8036 42.2602 38.9735 42.2602 39.1434L42.4297 39.9928V40.1626L42.2602 40.3325L41.9213 40.6723L41.4128 41.0121L40.9043 41.3518L40.3959 41.6916L39.8874 42.0313C39.7179 42.2012 39.5484 42.2012 39.3789 42.3711L38.8705 43.3904L38.5315 44.0699H38.8705L40.3959 43.2205H40.5654L42.4297 43.0506L43.9551 42.2012L45.8195 42.0313L43.9551 42.3711L42.4297 43.5603L40.7348 43.9001L39.3789 45.0892H39.2095L37.8536 45.429C37.8536 45.429 37.8536 45.429 37.8536 45.5989L37.6841 45.7688L37.3451 46.2784L36.8366 46.788C36.6671 46.9579 36.6671 47.1278 36.4977 47.2977L36.3282 47.4676H36.1587L35.6502 47.6375C35.4807 47.6375 35.3112 47.8073 35.1418 47.8073C34.9723 47.8073 34.8028 47.9772 34.6333 47.9772L34.2943 48.317ZM43.7856 46.2784L43.6161 46.4483L43.4466 46.6182L43.2772 46.788L43.1077 46.9579L42.9382 47.1278L42.5992 47.2977C42.5992 47.2977 42.4297 47.2977 42.4297 47.4676L42.2602 47.6375L42.0907 47.8073C41.9213 47.9772 41.9213 48.1471 41.7518 48.317C41.5823 48.6567 41.2433 48.9965 40.9043 49.3363L40.7348 49.5062H40.5654C40.3959 49.5062 40.2264 49.676 39.8874 49.676H39.5484H39.2095C39.04 49.676 38.8705 49.8459 38.5315 49.8459C38.362 49.8459 38.1925 49.8459 38.023 50.0158C37.8536 50.1857 37.6841 50.1857 37.6841 50.3556L37.3451 50.5254C37.1756 50.5254 37.1756 50.6953 37.0061 50.6953C36.8366 50.8652 36.6671 50.8652 36.4977 51.0351C36.3282 51.205 36.1587 51.205 35.9892 51.3749H35.8197H35.4807H35.1418C34.9723 51.3749 34.9723 51.3749 34.8028 51.3749C34.6333 51.3749 34.6333 51.3749 34.4638 51.3749C34.2943 51.3749 34.2943 51.3749 34.1248 51.3749C33.9554 51.3749 33.9554 51.3749 33.7859 51.3749C33.6164 51.3749 33.4469 51.3749 33.1079 51.205C33.2774 51.205 33.4469 51.0351 33.7859 51.0351C33.9554 51.0351 33.9554 51.0351 34.1248 51.0351C34.2943 51.0351 34.2943 51.0351 34.4638 51.0351C34.6333 51.0351 34.6333 51.0351 34.8028 51.0351C34.9723 51.0351 34.9723 51.0351 35.1418 51.0351H35.4807H35.6502C35.8197 50.8652 35.9892 50.8652 35.9892 50.6953C36.1587 50.5254 36.3282 50.3556 36.4977 50.3556L36.6671 50.1857L36.8366 50.0158C37.0061 49.8459 37.1756 49.676 37.3451 49.676H37.5146C37.6841 49.676 37.8536 49.5062 38.023 49.5062C38.1925 49.5062 38.362 49.3363 38.701 49.3363H39.04H39.3789C39.5484 49.3363 39.7179 49.3363 39.8874 49.1664C40.0569 48.8266 40.3959 48.6567 40.5654 48.317C40.7348 48.1471 40.9043 47.9772 41.0738 47.8073L41.2433 47.6375L41.4128 47.4676C41.5823 47.4676 41.5823 47.4676 41.7518 47.2977L42.0907 47.1278L42.4297 46.9579C42.5992 46.9579 42.5992 46.9579 42.7687 46.788C42.9382 46.788 42.9382 46.788 43.1077 46.6182C43.2772 46.6182 43.2772 46.6182 43.4466 46.4483C43.6161 46.1085 43.6161 46.1085 43.7856 46.2784C43.7856 46.1085 43.9551 46.1085 43.9551 46.1085C43.9551 46.1085 43.9551 46.1085 43.7856 46.2784Z" fill="white"/>
</svg>
