<svg width="65" height="44" viewBox="0 0 65 44" fill="none" xmlns="http://www.w3.org/2000/svg">
<path d="M20.3026 19.1567C18.6825 19.1567 3.58285 6.90246 1.7683 5.53363C-0.0462493 4.1648 0.342582 6.96764 0.342582 9.96602C0.342582 12.3778 0.342582 20.3952 0.342582 23.5891C0.731414 23.7195 1.05544 24.1106 1.05544 24.5668C1.05544 25.0883 0.666609 25.4794 0.212972 25.6098C0.018556 26.5223 -0.17586 28.1519 0.277777 28.0867C0.92583 27.9563 19.3305 42.8831 20.1082 43.7956C20.8859 44.7082 21.0803 42.2964 21.0155 41.9053C20.8859 41.5142 21.0155 22.3507 21.4043 21.3729C21.8579 20.33 21.8579 19.1567 20.3026 19.1567Z" fill="white"/>
<path d="M34.5765 16.6142C39.2362 16.4172 61.3053 12.6086 63.0527 13.0682C64.2824 13.0682 65.1238 12.6742 61.7584 11.3609C58.393 10.0475 52.8919 6.63286 52.3094 6.50152C51.7269 6.37019 38.3949 -0.393507 38.0066 0.0661616C37.6182 -0.196506 36.1944 0.394496 35.2236 0.591497C34.2529 0.722831 27.8457 1.3795 26.8749 1.51083C25.9041 1.64217 19.497 2.03617 17.8143 2.62717C15.7433 2.82417 2.28175 2.56151 2.60535 3.02118C2.86422 3.48084 2.60535 3.21818 2.60535 3.21818C2.60535 3.21818 19.2381 17.1396 22.6035 17.9276C25.9688 18.7156 29.9167 16.8112 34.5765 16.6142ZM55.8042 9.5222C56.1278 9.5222 56.3867 9.78487 56.3867 10.1132C56.3867 10.4415 56.1278 10.7042 55.8042 10.7042C55.4806 10.7042 55.2218 10.4415 55.2218 10.1132C55.157 9.78487 55.4159 9.5222 55.8042 9.5222ZM55.157 11.4265C55.4806 11.4265 55.7395 11.6892 55.7395 12.0175C55.7395 12.3459 55.4806 12.6086 55.157 12.6086C54.8335 12.6086 54.5746 12.3459 54.5746 12.0175C54.5746 11.6892 54.8335 11.4265 55.157 11.4265ZM52.7625 10.1132C53.2802 10.1132 53.6685 10.5072 53.6685 11.0325C53.6685 11.5579 53.2802 11.9519 52.7625 11.9519C52.2447 11.9519 51.8564 11.5579 51.8564 11.0325C51.8564 10.5072 52.2447 10.1132 52.7625 10.1132Z" fill="white"/>
<path d="M64.7856 14.9307C64.7856 14.2767 60.3242 15.0615 60.1274 14.9307C59.9305 14.7999 50.0235 16.2386 49.5643 16.304C49.105 16.3694 42.2816 17.3504 40.7726 17.612C39.2636 17.8736 32.637 18.3968 32.637 18.3968C31.7185 18.4622 27.7163 19.1815 26.6666 19.5085C25.5512 19.8355 24.1734 19.6393 23.7142 19.6393C23.2549 19.6393 23.3205 21.2089 22.9925 21.6012C22.6644 21.9936 22.5988 40.5012 22.73 41.0243C22.8613 41.5475 22.5332 43.7056 22.5332 43.9672C22.5332 44.2288 29.8158 42.8555 30.0783 42.7901C30.3407 42.6593 31.8497 42.2015 32.7027 42.2669C33.6868 42.6593 36.836 41.4167 37.0985 41.2859C37.3609 41.1551 41.2319 41.0243 42.3472 40.632C43.0689 40.3704 46.8087 39.5202 49.2362 39.1278C49.3018 38.6046 49.7611 38.2122 50.286 38.2122C50.7452 38.2122 51.1389 38.4738 51.2701 38.8662C51.4669 39.1278 55.2067 38.4738 55.2067 38.343C55.2067 38.2122 56.5845 37.6237 57.0437 37.8199C57.5686 37.9507 58.0279 37.6891 58.2903 37.5583C58.5527 37.4275 60.1274 37.1659 61.1115 37.0351C62.0957 36.9043 63.4734 36.7735 64.4576 35.5963C65.4417 33.5036 64.7856 14.9307 64.7856 14.9307ZM26.6666 41.0243C26.0761 41.0243 25.5512 40.5012 25.5512 39.9126C25.5512 39.324 26.0761 38.8008 26.6666 38.8008C27.2571 38.8008 27.782 39.324 27.782 39.9126C27.782 40.5012 27.3227 41.0243 26.6666 41.0243ZM26.2729 37.6891C25.2888 37.6891 24.5015 36.9043 24.5015 35.9233C24.5015 34.9424 25.2888 34.1576 26.2729 34.1576C27.2571 34.1576 28.0444 34.9424 28.0444 35.9233C28.0444 36.9043 27.2571 37.6891 26.2729 37.6891ZM29.5534 38.8662C29.0941 38.8662 28.7005 38.4738 28.7005 38.0161C28.7005 37.5583 29.0941 37.2313 29.5534 37.2313C30.0127 37.2313 30.3407 37.6237 30.3407 38.0161C30.3407 38.5392 30.0127 38.8662 29.5534 38.8662Z" fill="white"/>
</svg>
