<svg width="68" height="40" viewBox="0 0 68 40" fill="none" xmlns="http://www.w3.org/2000/svg">
<path fill-rule="evenodd" clip-rule="evenodd" d="M64.2708 1.2071C60.2572 0.437281 58.5353 0.91737 57.3935 0.910763C56.005 0.902638 55.3664 0.177102 54.5008 0.328352C53.4448 0.512817 56.0403 2.54032 56.1156 2.84451C56.431 3.31728 55.8981 3.92335 56.3084 4.47701C56.8556 5.21532 57.8352 5.35612 58.1177 5.50969C58.624 6.04246 59.088 8.54228 59.7113 8.44996C60.9067 8.27282 60.483 6.99219 60.9 6.59683C62.6378 4.94942 64.54 4.41924 67.429 5.22594C66.2466 3.79049 65.4533 2.64264 64.2708 1.2071ZM21.553 17.9647C21.5159 17.9849 17.803 20.0221 13.9312 22.8258C8.88122 26.4829 5.85307 29.7656 5.17406 32.3192C5.10666 32.5728 4.87057 32.7412 4.61183 32.7412C4.56389 32.7412 4.51518 32.7355 4.46667 32.7234C4.15592 32.6461 3.96874 32.3398 4.04863 32.0392C5.83283 25.329 20.3636 17.3237 20.9813 16.9861C21.2605 16.8333 21.6151 16.9288 21.773 17.199C21.9308 17.4692 21.8323 17.812 21.553 17.9647ZM57.8306 7.31332C57.6669 6.89187 57.4672 6.37771 57.3283 6.15781C57.2842 6.13561 57.2259 6.10845 57.1786 6.08626C57.1472 6.07165 57.1136 6.05582 57.0791 6.03952C56.7098 5.86439 56.175 5.58408 55.7515 5.03526C55.7759 5.0407 55.8 5.04678 55.8242 5.0525C55.7997 5.04669 55.7756 5.04013 55.7509 5.03451C55.7154 4.98844 55.6805 4.94105 55.6467 4.89113C55.347 4.44805 55.3644 4.01874 55.3772 3.70528C55.3864 3.48022 55.3889 3.33721 55.3278 3.23888L55.2912 3.17997L55.2852 3.15946C55.2172 3.06159 55.0029 2.81706 54.8282 2.61785C54.0019 1.67569 53.4621 1.02057 53.4859 0.51896C53.4877 0.482154 53.4933 0.447034 53.5009 0.413224C48.2064 -0.290121 40.1392 3.95402 31.2346 8.87697C27.5687 10.9036 15.1843 15.4782 7.66148 21.8889C-0.928827 29.2092 -0.79684 33.8663 0.943783 36.8949C0.987456 36.971 1.03219 37.0461 1.0778 37.1202C2.92601 40.1184 9.2306 41.0221 18.6976 37.09C22.234 35.6212 36.6882 25.5267 40.8 22.9187C48.55 18.0032 57.2938 14.4101 59.1431 9.30891C58.5814 9.24616 58.2468 8.38519 57.8306 7.31332Z" fill="#F9F9F9"/>
</svg>
