<svg width="168" height="50" viewBox="0 0 168 50" fill="none" xmlns="http://www.w3.org/2000/svg">
<path d="M37.6519 42L27.3319 30.384V42H22.9639V15.696H27.3319V27.36L37.4599 15.696H43.5559L31.1719 28.8L43.6039 42H37.6519Z" fill="white"/>
<path d="M72.627 27.84C72.627 28.672 72.579 29.552 72.483 30.48H51.459C51.619 33.072 52.499 35.104 54.099 36.576C55.731 38.016 57.699 38.736 60.003 38.736C61.891 38.736 63.459 38.304 64.707 37.44C65.987 36.544 66.883 35.36 67.395 33.888H72.099C71.395 36.416 69.987 38.48 67.875 40.08C65.763 41.648 63.139 42.432 60.003 42.432C57.507 42.432 55.267 41.872 53.283 40.752C51.331 39.632 49.795 38.048 48.675 36C47.555 33.92 46.995 31.52 46.995 28.8C46.995 26.08 47.539 23.696 48.627 21.648C49.715 19.6 51.235 18.032 53.187 16.944C55.171 15.824 57.443 15.264 60.003 15.264C62.499 15.264 64.707 15.808 66.627 16.896C68.547 17.984 70.019 19.488 71.043 21.408C72.099 23.296 72.627 25.44 72.627 27.84ZM68.115 26.928C68.115 25.264 67.747 23.84 67.011 22.656C66.275 21.44 65.267 20.528 63.987 19.92C62.739 19.28 61.347 18.96 59.811 18.96C57.603 18.96 55.715 19.664 54.147 21.072C52.611 22.48 51.731 24.432 51.507 26.928H68.115Z" fill="white"/>
<path d="M84.6806 19.296V34.8C84.6806 36.08 84.9526 36.992 85.4966 37.536C86.0406 38.048 86.9846 38.304 88.3286 38.304H91.5446V42H87.6086C85.1766 42 83.3526 41.44 82.1366 40.32C80.9206 39.2 80.3126 37.36 80.3126 34.8V19.296H76.9046V15.696H80.3126V9.07202H84.6806V15.696H91.5446V19.296H84.6806Z" fill="white"/>
<path d="M109.269 42.432C106.805 42.432 104.565 41.872 102.549 40.752C100.565 39.632 98.997 38.048 97.845 36C96.725 33.92 96.165 31.52 96.165 28.8C96.165 26.112 96.741 23.744 97.893 21.696C99.077 19.616 100.677 18.032 102.693 16.944C104.709 15.824 106.965 15.264 109.461 15.264C111.957 15.264 114.213 15.824 116.229 16.944C118.245 18.032 119.829 19.6 120.981 21.648C122.165 23.696 122.757 26.08 122.757 28.8C122.757 31.52 122.149 33.92 120.933 36C119.749 38.048 118.133 39.632 116.085 40.752C114.037 41.872 111.765 42.432 109.269 42.432ZM109.269 38.592C110.837 38.592 112.309 38.224 113.685 37.488C115.061 36.752 116.165 35.648 116.997 34.176C117.861 32.704 118.293 30.912 118.293 28.8C118.293 26.688 117.877 24.896 117.045 23.424C116.213 21.952 115.125 20.864 113.781 20.16C112.437 19.424 110.981 19.056 109.413 19.056C107.813 19.056 106.341 19.424 104.997 20.16C103.685 20.864 102.629 21.952 101.829 23.424C101.029 24.896 100.629 26.688 100.629 28.8C100.629 30.944 101.013 32.752 101.781 34.224C102.581 35.696 103.637 36.8 104.949 37.536C106.261 38.24 107.701 38.592 109.269 38.592Z" fill="white"/>
<path d="M143.188 42L136.948 32.208L130.948 42H126.388L134.884 28.944L126.388 15.696H131.332L137.572 25.44L143.524 15.696H148.084L139.636 28.704L148.132 42H143.188Z" fill="#7DBD26"/>
</svg>
